<?xml version="1.0" encoding="UTF-8" standalone="no"?>
<!-- Generator: Adobe Illustrator 16.0.0, SVG Export Plug-In . SVG Version: 6.00 Build 0)  -->

<svg
   xmlns:dc="http://purl.org/dc/elements/1.1/"
   xmlns:cc="http://creativecommons.org/ns#"
   xmlns:rdf="http://www.w3.org/1999/02/22-rdf-syntax-ns#"
   xmlns:svg="http://www.w3.org/2000/svg"
   xmlns="http://www.w3.org/2000/svg"
   xmlns:sodipodi="http://sodipodi.sourceforge.net/DTD/sodipodi-0.dtd"
   xmlns:inkscape="http://www.inkscape.org/namespaces/inkscape"
   version="1.1"
   id="Capa_1"
   x="0px"
   y="0px"
   width="466.583px"
   height="466.582px"
   viewBox="0 0 466.583 466.582"
   style="enable-background:new 0 0 466.583 466.582;"
   xml:space="preserve"
   inkscape:version="0.91 r"
   sodipodi:docname="pin56_1.svg"><metadata
     id="metadata4691"><rdf:RDF><cc:Work
         rdf:about=""><dc:format>image/svg+xml</dc:format><dc:type
           rdf:resource="http://purl.org/dc/dcmitype/StillImage" /><dc:title></dc:title></cc:Work></rdf:RDF></metadata><defs
     id="defs4689" /><sodipodi:namedview
     pagecolor="#ffffff"
     bordercolor="#666666"
     borderopacity="1"
     objecttolerance="10"
     gridtolerance="10"
     guidetolerance="10"
     inkscape:pageopacity="0"
     inkscape:pageshadow="2"
     inkscape:window-width="710"
     inkscape:window-height="480"
     id="namedview4687"
     showgrid="false"
     inkscape:zoom="0.50580605"
     inkscape:cx="233.2915"
     inkscape:cy="233.291"
     inkscape:window-x="0"
     inkscape:window-y="0"
     inkscape:window-maximized="0"
     inkscape:current-layer="Capa_1" /><g
     id="g4653"><path
       d="M233.292,0c-85.1,0-154.334,69.234-154.334,154.333c0,34.275,21.887,90.155,66.908,170.834   c31.846,57.063,63.168,104.643,64.484,106.64l22.942,34.775l22.941-34.774c1.317-1.998,32.641-49.577,64.483-106.64   c45.023-80.68,66.908-136.559,66.908-170.834C387.625,69.234,318.391,0,233.292,0z M233.292,233.291c-44.182,0-80-35.817-80-80   s35.818-80,80-80c44.182,0,80,35.817,80,80S277.473,233.291,233.292,233.291z"
       id="path4655"
       style="fill:#705944;fill-opacity:0.97647059" /></g><g
     id="g4657" /><g
     id="g4659" /><g
     id="g4661" /><g
     id="g4663" /><g
     id="g4665" /><g
     id="g4667" /><g
     id="g4669" /><g
     id="g4671" /><g
     id="g4673" /><g
     id="g4675" /><g
     id="g4677" /><g
     id="g4679" /><g
     id="g4681" /><g
     id="g4683" /><g
     id="g4685" /></svg>